<?xml version="1.0" encoding="utf-8" ?>
<svg baseProfile="full" height="682" version="1.1" width="2048" xmlns="http://www.w3.org/2000/svg" xmlns:ev="http://www.w3.org/2001/xml-events" xmlns:xlink="http://www.w3.org/1999/xlink"><defs /><path d="M 1900,222 L 1900,462 L 1901,461 L 2006,461 L 2007,462 L 2008,462 L 2008,435 L 1930,435 L 1929,434 L 1930,433 L 1930,349 L 1929,348 L 1930,347 L 1996,347 L 1996,320 L 1930,320 L 1929,319 L 1930,318 L 1930,250 L 1931,249 L 2005,249 L 2005,222 Z" fill="white" fill-rule="evenodd" /><path d="M 1929,249 L 1930,248 L 1931,249 L 1930,250 Z" fill="white" fill-rule="evenodd" /><path d="M 1654,222 L 1655,223 L 1654,224 L 1654,226 L 1653,227 L 1653,229 L 1652,230 L 1652,231 L 1653,232 L 1653,233 L 1652,234 L 1652,236 L 1651,237 L 1651,239 L 1650,240 L 1650,241 L 1651,242 L 1650,243 L 1650,245 L 1649,246 L 1649,248 L 1648,249 L 1648,255 L 1647,256 L 1647,258 L 1646,259 L 1646,264 L 1645,265 L 1645,268 L 1644,269 L 1644,274 L 1643,275 L 1643,277 L 1642,278 L 1642,280 L 1641,281 L 1642,282 L 1642,283 L 1641,284 L 1641,287 L 1640,288 L 1640,290 L 1639,291 L 1639,292 L 1640,293 L 1639,294 L 1639,296 L 1638,297 L 1638,299 L 1637,300 L 1637,301 L 1638,302 L 1637,303 L 1637,306 L 1636,307 L 1636,309 L 1635,310 L 1635,311 L 1636,312 L 1635,313 L 1635,315 L 1634,316 L 1634,318 L 1633,319 L 1633,325 L 1632,326 L 1632,328 L 1631,329 L 1631,334 L 1630,335 L 1630,337 L 1629,338 L 1629,344 L 1628,345 L 1628,347 L 1627,348 L 1627,350 L 1626,351 L 1626,352 L 1627,353 L 1626,354 L 1626,356 L 1625,357 L 1625,360 L 1624,361 L 1625,362 L 1625,363 L 1624,364 L 1624,366 L 1623,367 L 1623,369 L 1622,370 L 1622,371 L 1623,372 L 1622,373 L 1622,375 L 1621,376 L 1621,379 L 1620,380 L 1620,385 L 1619,386 L 1619,388 L 1618,389 L 1618,394 L 1617,395 L 1617,398 L 1616,399 L 1616,404 L 1615,405 L 1615,407 L 1614,408 L 1614,411 L 1613,412 L 1614,413 L 1614,414 L 1613,415 L 1613,417 L 1612,418 L 1612,420 L 1611,421 L 1612,422 L 1612,423 L 1611,424 L 1611,426 L 1610,427 L 1610,429 L 1609,430 L 1609,431 L 1610,432 L 1610,433 L 1609,434 L 1609,436 L 1608,437 L 1608,439 L 1607,440 L 1607,441 L 1608,442 L 1607,443 L 1607,445 L 1606,446 L 1606,448 L 1605,449 L 1605,455 L 1604,456 L 1604,458 L 1603,459 L 1603,461 L 1634,461 L 1634,458 L 1635,457 L 1635,454 L 1636,453 L 1636,446 L 1637,445 L 1637,442 L 1638,441 L 1638,434 L 1639,433 L 1639,431 L 1640,430 L 1640,423 L 1641,422 L 1641,419 L 1642,418 L 1642,416 L 1643,415 L 1644,415 L 1645,416 L 1695,416 L 1696,415 L 1697,415 L 1698,416 L 1698,419 L 1699,420 L 1699,423 L 1700,424 L 1700,425 L 1699,426 L 1700,427 L 1700,430 L 1701,431 L 1701,434 L 1702,435 L 1702,441 L 1703,442 L 1703,445 L 1704,446 L 1704,452 L 1705,453 L 1705,456 L 1706,457 L 1706,461 L 1736,461 L 1737,462 L 1737,457 L 1736,456 L 1736,454 L 1735,453 L 1735,447 L 1734,446 L 1734,444 L 1733,443 L 1733,441 L 1732,440 L 1733,439 L 1733,438 L 1732,437 L 1732,435 L 1731,434 L 1731,432 L 1730,431 L 1731,430 L 1731,429 L 1730,428 L 1730,426 L 1729,425 L 1729,423 L 1728,422 L 1728,421 L 1729,420 L 1728,419 L 1728,417 L 1727,416 L 1727,413 L 1726,412 L 1726,407 L 1725,406 L 1725,404 L 1724,403 L 1724,398 L 1723,397 L 1723,395 L 1722,394 L 1722,389 L 1721,388 L 1721,386 L 1720,385 L 1720,379 L 1719,378 L 1719,376 L 1718,375 L 1718,373 L 1717,372 L 1718,371 L 1718,370 L 1717,369 L 1717,367 L 1716,366 L 1716,364 L 1715,363 L 1716,362 L 1716,361 L 1715,360 L 1715,358 L 1714,357 L 1714,355 L 1713,354 L 1713,349 L 1712,348 L 1712,346 L 1711,345 L 1711,339 L 1710,338 L 1710,336 L 1709,335 L 1709,330 L 1708,329 L 1708,327 L 1707,326 L 1707,324 L 1706,323 L 1707,322 L 1707,321 L 1706,320 L 1706,318 L 1705,317 L 1705,314 L 1704,313 L 1705,312 L 1704,311 L 1704,308 L 1703,307 L 1703,305 L 1702,304 L 1703,303 L 1703,302 L 1702,301 L 1702,299 L 1701,298 L 1701,296 L 1700,295 L 1701,294 L 1701,293 L 1700,292 L 1700,290 L 1699,289 L 1699,287 L 1698,286 L 1698,281 L 1697,280 L 1697,277 L 1696,276 L 1696,271 L 1695,270 L 1695,268 L 1694,267 L 1694,265 L 1693,264 L 1694,263 L 1694,262 L 1693,261 L 1693,259 L 1692,258 L 1692,253 L 1691,252 L 1691,250 L 1690,249 L 1690,246 L 1689,245 L 1690,244 L 1690,243 L 1689,242 L 1689,240 L 1688,239 L 1688,237 L 1687,236 L 1688,235 L 1688,234 L 1687,233 L 1687,231 L 1686,230 L 1686,228 L 1685,227 L 1685,226 L 1686,225 L 1685,224 L 1685,222 Z" fill="white" fill-rule="evenodd" /><path d="M 1668,268 L 1669,267 L 1670,268 L 1670,272 L 1671,273 L 1671,276 L 1672,277 L 1672,283 L 1673,284 L 1673,287 L 1674,288 L 1674,294 L 1675,295 L 1675,298 L 1676,299 L 1676,305 L 1677,306 L 1677,308 L 1678,309 L 1678,312 L 1679,313 L 1678,314 L 1678,315 L 1679,316 L 1679,319 L 1680,320 L 1680,323 L 1681,324 L 1680,325 L 1680,326 L 1681,327 L 1681,330 L 1682,331 L 1682,334 L 1683,335 L 1682,336 L 1682,337 L 1683,338 L 1683,341 L 1684,342 L 1684,344 L 1685,345 L 1685,346 L 1684,347 L 1684,348 L 1685,349 L 1685,351 L 1686,352 L 1686,355 L 1687,356 L 1687,362 L 1688,363 L 1688,366 L 1689,367 L 1689,373 L 1690,374 L 1690,377 L 1691,378 L 1691,384 L 1692,385 L 1692,387 L 1693,388 L 1693,389 L 1692,390 L 1691,389 L 1648,389 L 1647,388 L 1647,387 L 1648,386 L 1648,383 L 1649,382 L 1649,381 L 1648,380 L 1649,379 L 1649,376 L 1650,375 L 1650,372 L 1651,371 L 1651,364 L 1652,363 L 1652,361 L 1653,360 L 1653,358 L 1652,357 L 1653,356 L 1653,353 L 1654,352 L 1654,349 L 1655,348 L 1655,341 L 1656,340 L 1656,338 L 1657,337 L 1657,334 L 1658,333 L 1658,332 L 1657,331 L 1657,330 L 1658,329 L 1658,326 L 1659,325 L 1659,322 L 1660,321 L 1660,320 L 1659,319 L 1660,318 L 1660,315 L 1661,314 L 1661,311 L 1662,310 L 1662,309 L 1661,308 L 1661,307 L 1662,306 L 1662,303 L 1663,302 L 1663,300 L 1664,299 L 1664,297 L 1663,296 L 1664,295 L 1664,292 L 1665,291 L 1665,288 L 1666,287 L 1666,280 L 1667,279 L 1667,277 L 1668,276 L 1668,274 L 1667,273 L 1668,272 Z" fill="white" fill-rule="evenodd" /><path d="M 1497,222 L 1498,223 L 1498,460 L 1497,461 L 1498,462 L 1499,461 L 1526,461 L 1527,462 L 1528,461 L 1528,460 L 1527,459 L 1527,346 L 1528,345 L 1593,345 L 1593,319 L 1528,319 L 1527,318 L 1527,249 L 1528,248 L 1529,249 L 1603,249 L 1603,222 Z" fill="white" fill-rule="evenodd" /><path d="M 1344,222 L 1344,461 L 1372,461 L 1373,462 L 1374,462 L 1374,358 L 1373,357 L 1374,356 L 1398,356 L 1399,357 L 1399,359 L 1400,360 L 1400,361 L 1401,362 L 1400,363 L 1402,365 L 1402,366 L 1403,367 L 1403,370 L 1405,372 L 1405,375 L 1407,377 L 1407,380 L 1408,381 L 1408,382 L 1410,384 L 1409,385 L 1410,386 L 1410,387 L 1411,388 L 1411,389 L 1412,390 L 1412,392 L 1413,393 L 1413,394 L 1414,395 L 1413,396 L 1414,397 L 1414,398 L 1416,400 L 1416,403 L 1418,405 L 1418,408 L 1419,409 L 1419,410 L 1420,411 L 1420,413 L 1421,414 L 1421,415 L 1422,416 L 1422,417 L 1423,418 L 1422,419 L 1424,421 L 1424,422 L 1425,423 L 1424,424 L 1425,425 L 1425,426 L 1426,427 L 1426,429 L 1427,430 L 1427,431 L 1428,432 L 1428,433 L 1429,434 L 1429,436 L 1430,437 L 1430,438 L 1431,439 L 1431,441 L 1432,442 L 1432,443 L 1433,444 L 1433,447 L 1435,449 L 1435,450 L 1436,451 L 1435,452 L 1436,453 L 1436,454 L 1437,455 L 1437,457 L 1438,458 L 1438,459 L 1439,460 L 1439,461 L 1469,461 L 1470,462 L 1471,461 L 1470,460 L 1470,459 L 1469,458 L 1469,457 L 1468,456 L 1468,453 L 1466,451 L 1466,448 L 1465,447 L 1465,446 L 1464,445 L 1464,443 L 1462,441 L 1462,440 L 1461,439 L 1462,438 L 1461,437 L 1461,436 L 1460,435 L 1460,433 L 1459,432 L 1459,431 L 1458,430 L 1458,429 L 1457,428 L 1458,427 L 1456,425 L 1456,424 L 1455,423 L 1455,421 L 1454,420 L 1454,419 L 1453,418 L 1453,416 L 1452,415 L 1452,414 L 1451,413 L 1451,410 L 1449,408 L 1449,406 L 1448,405 L 1448,404 L 1447,403 L 1447,402 L 1446,401 L 1447,400 L 1445,398 L 1445,397 L 1444,396 L 1445,395 L 1444,394 L 1444,393 L 1442,391 L 1442,388 L 1441,387 L 1441,386 L 1440,385 L 1440,383 L 1439,382 L 1439,381 L 1438,380 L 1438,378 L 1437,377 L 1437,376 L 1436,375 L 1436,373 L 1435,372 L 1435,371 L 1434,370 L 1434,368 L 1433,367 L 1433,366 L 1432,365 L 1432,364 L 1431,363 L 1431,361 L 1430,360 L 1430,359 L 1429,358 L 1429,356 L 1428,355 L 1428,354 L 1430,352 L 1432,352 L 1433,351 L 1435,351 L 1436,350 L 1437,350 L 1438,349 L 1439,349 L 1441,347 L 1442,347 L 1448,341 L 1448,340 L 1451,337 L 1451,335 L 1453,333 L 1453,330 L 1455,328 L 1455,324 L 1456,323 L 1456,322 L 1457,321 L 1457,318 L 1458,317 L 1457,316 L 1457,315 L 1458,314 L 1458,311 L 1459,310 L 1459,305 L 1460,304 L 1460,299 L 1459,298 L 1459,295 L 1460,294 L 1460,280 L 1459,279 L 1459,277 L 1460,276 L 1460,272 L 1459,271 L 1459,267 L 1458,266 L 1458,263 L 1457,262 L 1457,258 L 1456,257 L 1456,255 L 1455,254 L 1455,251 L 1453,249 L 1453,247 L 1451,245 L 1451,243 L 1449,241 L 1449,240 L 1448,240 L 1447,239 L 1447,237 L 1446,237 L 1442,233 L 1442,232 L 1441,233 L 1440,232 L 1440,231 L 1439,230 L 1437,230 L 1436,229 L 1436,228 L 1434,228 L 1433,227 L 1432,227 L 1431,226 L 1430,227 L 1429,226 L 1428,226 L 1427,225 L 1426,225 L 1425,224 L 1420,224 L 1419,223 L 1416,223 L 1415,222 Z" fill="white" fill-rule="evenodd" /><path d="M 1373,249 L 1374,248 L 1393,248 L 1394,249 L 1407,249 L 1408,250 L 1411,250 L 1412,251 L 1413,250 L 1414,251 L 1415,251 L 1417,253 L 1418,253 L 1419,254 L 1420,254 L 1424,258 L 1424,259 L 1425,260 L 1425,261 L 1427,263 L 1427,265 L 1428,266 L 1428,267 L 1429,268 L 1429,269 L 1428,270 L 1429,271 L 1429,275 L 1430,276 L 1430,304 L 1429,305 L 1429,309 L 1428,310 L 1428,311 L 1429,312 L 1428,313 L 1428,315 L 1427,316 L 1427,317 L 1426,318 L 1426,320 L 1424,322 L 1424,323 L 1417,330 L 1416,329 L 1414,331 L 1413,331 L 1412,332 L 1411,331 L 1410,332 L 1403,332 L 1402,333 L 1375,333 L 1374,332 L 1374,250 Z" fill="white" fill-rule="evenodd" /><path d="M 1207,222 L 1207,461 L 1208,462 L 1209,461 L 1314,461 L 1315,462 L 1315,435 L 1238,435 L 1237,434 L 1237,348 L 1238,347 L 1304,347 L 1304,320 L 1238,320 L 1237,319 L 1237,249 L 1238,248 L 1239,249 L 1313,249 L 1313,222 Z" fill="white" fill-rule="evenodd" /><path d="M 1061,222 L 1061,249 L 1105,249 L 1106,248 L 1107,249 L 1107,250 L 1106,251 L 1106,461 L 1107,462 L 1108,461 L 1135,461 L 1136,462 L 1136,249 L 1137,248 L 1138,249 L 1182,249 L 1182,222 Z" fill="white" fill-rule="evenodd" /><path d="M 856,222 L 856,224 L 857,225 L 857,458 L 856,459 L 856,461 L 885,461 L 886,462 L 886,222 Z" fill="white" fill-rule="evenodd" /><path d="M 628,222 L 628,462 L 629,461 L 734,461 L 735,462 L 736,461 L 736,460 L 735,459 L 735,438 L 736,437 L 736,436 L 735,435 L 659,435 L 658,436 L 657,435 L 657,348 L 658,347 L 724,347 L 724,320 L 658,320 L 657,319 L 657,250 L 658,249 L 733,249 L 733,222 Z" fill="white" fill-rule="evenodd" /><path d="M 474,222 L 474,461 L 475,462 L 476,461 L 502,461 L 503,462 L 504,462 L 504,357 L 505,356 L 528,356 L 530,358 L 529,359 L 530,360 L 530,361 L 531,362 L 531,363 L 532,364 L 532,366 L 533,367 L 533,368 L 534,369 L 534,371 L 535,372 L 535,373 L 536,374 L 536,377 L 538,379 L 538,380 L 539,381 L 538,382 L 540,384 L 540,387 L 541,388 L 541,389 L 542,390 L 542,392 L 543,393 L 543,394 L 544,395 L 544,396 L 545,397 L 544,398 L 546,400 L 546,401 L 547,402 L 546,403 L 547,404 L 547,405 L 548,406 L 548,407 L 549,408 L 549,410 L 550,411 L 550,412 L 551,413 L 551,415 L 552,416 L 552,417 L 553,418 L 553,420 L 554,421 L 554,422 L 555,423 L 555,426 L 556,427 L 556,428 L 558,430 L 557,431 L 558,432 L 558,433 L 559,434 L 559,437 L 561,439 L 561,440 L 562,441 L 561,442 L 563,444 L 563,445 L 564,446 L 564,449 L 566,451 L 566,454 L 567,455 L 567,456 L 568,457 L 568,459 L 569,460 L 569,461 L 570,462 L 571,461 L 599,461 L 600,462 L 601,462 L 601,460 L 599,458 L 599,455 L 598,454 L 598,453 L 596,451 L 597,450 L 595,448 L 595,445 L 594,444 L 594,443 L 592,441 L 593,440 L 592,439 L 592,438 L 591,437 L 591,436 L 590,435 L 590,433 L 589,432 L 589,431 L 588,430 L 588,428 L 587,427 L 587,426 L 586,425 L 586,423 L 585,422 L 585,421 L 584,420 L 584,418 L 583,417 L 583,416 L 582,415 L 582,412 L 580,410 L 580,409 L 579,408 L 580,407 L 578,405 L 578,402 L 577,401 L 577,400 L 575,398 L 576,397 L 575,396 L 575,395 L 574,394 L 574,393 L 573,392 L 573,390 L 572,389 L 572,388 L 571,387 L 571,385 L 570,384 L 570,383 L 569,382 L 569,380 L 568,379 L 568,378 L 567,377 L 567,375 L 566,374 L 566,373 L 565,372 L 565,369 L 563,367 L 563,366 L 562,365 L 563,364 L 561,362 L 561,361 L 560,360 L 560,358 L 559,357 L 559,356 L 558,355 L 558,354 L 560,352 L 562,352 L 563,351 L 564,352 L 565,351 L 566,351 L 568,349 L 569,349 L 570,348 L 571,348 L 572,347 L 573,347 L 573,346 L 574,345 L 575,345 L 575,344 L 576,343 L 577,343 L 578,342 L 578,341 L 580,339 L 580,338 L 582,336 L 581,335 L 583,333 L 583,332 L 584,331 L 584,329 L 585,328 L 585,327 L 586,326 L 586,322 L 587,321 L 587,319 L 588,318 L 588,311 L 589,310 L 589,304 L 590,303 L 590,294 L 591,293 L 591,292 L 590,291 L 591,290 L 591,284 L 590,283 L 591,282 L 591,281 L 590,280 L 590,272 L 589,271 L 589,267 L 588,266 L 588,260 L 587,259 L 587,258 L 586,257 L 586,253 L 584,251 L 584,250 L 583,249 L 583,247 L 581,245 L 582,244 L 579,241 L 579,240 L 578,240 L 577,239 L 578,238 L 577,237 L 576,237 L 575,236 L 575,235 L 574,235 L 573,234 L 573,233 L 572,232 L 571,233 L 570,232 L 570,231 L 569,231 L 568,230 L 567,230 L 566,229 L 566,228 L 564,228 L 563,227 L 562,227 L 561,226 L 558,226 L 557,225 L 556,225 L 555,224 L 550,224 L 549,223 L 546,223 L 545,222 Z" fill="white" fill-rule="evenodd" /><path d="M 503,249 L 504,248 L 523,248 L 524,249 L 537,249 L 538,250 L 541,250 L 542,251 L 543,250 L 544,251 L 545,251 L 547,253 L 548,253 L 550,255 L 551,255 L 554,258 L 554,259 L 555,259 L 556,260 L 555,261 L 558,264 L 557,265 L 558,266 L 558,267 L 559,268 L 559,271 L 560,272 L 559,273 L 559,276 L 560,277 L 560,304 L 559,305 L 559,307 L 560,308 L 560,309 L 559,310 L 559,312 L 558,313 L 558,315 L 557,316 L 557,318 L 556,319 L 556,320 L 555,321 L 555,322 L 547,330 L 545,330 L 544,331 L 543,331 L 542,332 L 541,331 L 540,332 L 534,332 L 533,333 L 505,333 L 504,332 L 504,250 Z" fill="white" fill-rule="evenodd" /><path d="M 922,221 L 921,222 L 921,461 L 949,461 L 950,462 L 950,444 L 949,443 L 949,435 L 950,434 L 950,413 L 949,412 L 949,378 L 948,377 L 948,339 L 947,338 L 947,330 L 948,329 L 948,308 L 947,307 L 947,273 L 946,272 L 946,260 L 947,259 L 948,260 L 948,262 L 949,263 L 949,265 L 950,266 L 949,267 L 949,268 L 950,269 L 950,271 L 951,272 L 951,277 L 952,278 L 952,280 L 953,281 L 953,286 L 954,287 L 954,290 L 955,291 L 955,293 L 956,294 L 955,295 L 956,296 L 956,299 L 957,300 L 957,302 L 958,303 L 957,304 L 957,305 L 958,306 L 958,308 L 959,309 L 959,311 L 960,312 L 960,313 L 959,314 L 960,315 L 960,317 L 961,318 L 961,320 L 962,321 L 962,326 L 963,327 L 963,329 L 964,330 L 964,335 L 965,336 L 965,338 L 966,339 L 966,341 L 967,342 L 966,343 L 966,344 L 967,345 L 967,347 L 968,348 L 968,350 L 969,351 L 968,352 L 968,353 L 969,354 L 969,356 L 970,357 L 970,359 L 971,360 L 970,361 L 970,362 L 971,363 L 971,365 L 972,366 L 972,368 L 973,369 L 973,370 L 972,371 L 973,372 L 973,374 L 974,375 L 974,377 L 975,378 L 975,383 L 976,384 L 976,386 L 977,387 L 977,392 L 978,393 L 978,395 L 979,396 L 979,402 L 980,403 L 980,404 L 981,405 L 981,408 L 982,409 L 981,410 L 982,411 L 982,414 L 983,415 L 983,417 L 984,418 L 983,419 L 983,420 L 984,421 L 984,423 L 985,424 L 985,426 L 986,427 L 985,428 L 985,429 L 986,430 L 986,432 L 987,433 L 987,435 L 988,436 L 988,437 L 987,438 L 988,439 L 988,441 L 989,442 L 989,444 L 990,445 L 990,450 L 991,451 L 991,453 L 992,454 L 992,459 L 993,460 L 993,461 L 994,462 L 995,461 L 1034,461 L 1035,462 L 1036,461 L 1036,459 L 1035,458 L 1035,225 L 1036,224 L 1036,222 L 1035,221 L 1034,221 L 1033,222 L 1009,222 L 1008,221 L 1007,221 L 1007,252 L 1008,253 L 1007,254 L 1007,286 L 1008,287 L 1008,322 L 1009,323 L 1009,357 L 1010,358 L 1010,366 L 1009,367 L 1009,392 L 1010,393 L 1010,423 L 1011,424 L 1011,429 L 1010,430 L 1009,429 L 1009,425 L 1008,424 L 1008,421 L 1007,420 L 1008,419 L 1007,418 L 1007,416 L 1006,415 L 1006,412 L 1005,411 L 1006,410 L 1005,409 L 1005,407 L 1004,406 L 1004,404 L 1003,403 L 1003,402 L 1004,401 L 1003,400 L 1003,398 L 1002,397 L 1002,395 L 1001,394 L 1001,389 L 1000,388 L 1000,386 L 999,385 L 999,380 L 998,379 L 998,377 L 997,376 L 997,374 L 996,373 L 997,372 L 997,371 L 996,370 L 996,368 L 995,367 L 995,365 L 994,364 L 995,363 L 995,362 L 994,361 L 994,359 L 993,358 L 993,356 L 992,355 L 993,354 L 993,353 L 992,352 L 992,350 L 991,349 L 991,348 L 990,347 L 990,346 L 991,345 L 990,344 L 990,342 L 989,341 L 989,339 L 988,338 L 988,337 L 989,336 L 989,335 L 988,334 L 988,333 L 987,332 L 987,330 L 986,329 L 986,324 L 985,323 L 985,321 L 984,320 L 984,315 L 983,314 L 983,312 L 982,311 L 982,306 L 981,305 L 981,303 L 980,302 L 980,297 L 979,296 L 979,294 L 978,293 L 978,291 L 977,290 L 978,289 L 977,288 L 977,286 L 976,285 L 976,282 L 975,281 L 976,280 L 976,279 L 975,278 L 975,277 L 974,276 L 974,274 L 973,273 L 973,272 L 974,271 L 973,270 L 973,268 L 972,267 L 972,265 L 971,264 L 971,259 L 970,258 L 970,256 L 969,255 L 969,250 L 968,249 L 968,247 L 967,246 L 967,244 L 966,243 L 967,242 L 967,241 L 966,240 L 966,238 L 965,237 L 965,235 L 964,234 L 965,233 L 965,232 L 964,231 L 964,229 L 963,228 L 963,226 L 962,225 L 963,224 L 963,223 L 962,222 L 962,221 L 960,221 L 959,222 L 924,222 L 923,221 Z" fill="white" fill-rule="evenodd" /><path d="M 946,257 L 947,256 L 948,257 L 947,258 Z" fill="white" fill-rule="evenodd" /><path d="M 1805,218 L 1804,219 L 1800,219 L 1799,220 L 1798,219 L 1797,219 L 1796,220 L 1795,220 L 1794,221 L 1792,221 L 1791,222 L 1789,222 L 1788,223 L 1787,223 L 1786,224 L 1784,224 L 1782,226 L 1780,226 L 1780,227 L 1779,228 L 1777,228 L 1777,229 L 1776,230 L 1775,230 L 1770,235 L 1770,236 L 1769,237 L 1768,237 L 1768,239 L 1767,240 L 1766,240 L 1767,241 L 1764,244 L 1764,245 L 1763,246 L 1763,247 L 1762,248 L 1763,249 L 1762,250 L 1762,251 L 1761,252 L 1761,253 L 1760,254 L 1760,258 L 1759,259 L 1759,261 L 1758,262 L 1758,270 L 1757,271 L 1757,279 L 1756,280 L 1756,300 L 1755,301 L 1755,383 L 1756,384 L 1756,405 L 1757,406 L 1757,415 L 1758,416 L 1758,424 L 1759,425 L 1759,427 L 1760,428 L 1760,429 L 1761,430 L 1760,431 L 1761,432 L 1761,433 L 1762,434 L 1762,436 L 1763,437 L 1763,438 L 1764,439 L 1764,440 L 1766,442 L 1766,444 L 1767,444 L 1768,445 L 1768,446 L 1771,449 L 1771,450 L 1773,452 L 1775,452 L 1776,453 L 1776,454 L 1777,455 L 1778,455 L 1779,456 L 1779,457 L 1781,457 L 1782,458 L 1783,458 L 1784,459 L 1785,459 L 1786,460 L 1787,460 L 1789,462 L 1790,461 L 1791,462 L 1793,462 L 1794,463 L 1795,463 L 1796,464 L 1797,464 L 1798,463 L 1799,464 L 1803,464 L 1804,465 L 1824,465 L 1825,464 L 1829,464 L 1830,463 L 1831,464 L 1832,464 L 1833,463 L 1835,463 L 1836,462 L 1837,462 L 1838,461 L 1839,462 L 1840,461 L 1841,461 L 1842,460 L 1843,460 L 1844,459 L 1846,459 L 1848,457 L 1849,457 L 1851,455 L 1852,455 L 1853,454 L 1853,453 L 1854,452 L 1855,452 L 1855,451 L 1856,450 L 1857,450 L 1857,449 L 1858,448 L 1859,448 L 1859,447 L 1862,444 L 1861,443 L 1863,441 L 1863,439 L 1864,438 L 1864,437 L 1865,436 L 1865,435 L 1866,434 L 1866,431 L 1867,430 L 1867,428 L 1868,427 L 1868,420 L 1869,419 L 1869,410 L 1870,409 L 1870,377 L 1843,377 L 1842,378 L 1842,402 L 1841,403 L 1841,410 L 1842,411 L 1842,414 L 1841,415 L 1841,417 L 1840,418 L 1840,420 L 1839,421 L 1840,422 L 1839,423 L 1839,424 L 1838,425 L 1838,427 L 1836,429 L 1836,430 L 1834,432 L 1833,432 L 1833,433 L 1830,436 L 1829,436 L 1828,437 L 1826,437 L 1826,438 L 1825,439 L 1820,439 L 1819,440 L 1810,440 L 1809,439 L 1808,439 L 1807,440 L 1806,439 L 1804,439 L 1802,437 L 1800,437 L 1798,435 L 1797,435 L 1795,433 L 1795,432 L 1794,432 L 1792,430 L 1792,429 L 1791,428 L 1791,427 L 1789,425 L 1789,424 L 1788,423 L 1789,422 L 1788,421 L 1788,420 L 1787,419 L 1787,415 L 1786,414 L 1786,411 L 1787,410 L 1787,402 L 1786,401 L 1786,377 L 1785,376 L 1785,303 L 1786,302 L 1786,285 L 1787,284 L 1787,279 L 1786,278 L 1786,276 L 1787,275 L 1787,270 L 1788,269 L 1788,266 L 1789,265 L 1789,264 L 1788,263 L 1789,262 L 1789,261 L 1790,260 L 1790,259 L 1791,258 L 1791,256 L 1793,254 L 1793,253 L 1798,248 L 1799,248 L 1799,247 L 1800,246 L 1802,246 L 1803,245 L 1804,245 L 1805,244 L 1806,244 L 1807,243 L 1808,244 L 1809,244 L 1810,243 L 1821,243 L 1822,244 L 1826,244 L 1827,245 L 1828,245 L 1829,246 L 1830,246 L 1834,250 L 1835,250 L 1836,251 L 1835,252 L 1836,252 L 1837,253 L 1837,254 L 1838,255 L 1838,257 L 1839,258 L 1839,260 L 1840,261 L 1839,262 L 1839,263 L 1840,264 L 1840,270 L 1841,271 L 1841,297 L 1868,297 L 1868,260 L 1867,259 L 1867,256 L 1866,255 L 1866,250 L 1865,249 L 1865,248 L 1864,247 L 1864,244 L 1862,242 L 1862,241 L 1860,239 L 1860,238 L 1858,236 L 1858,235 L 1852,229 L 1851,229 L 1848,226 L 1847,226 L 1846,225 L 1845,225 L 1844,224 L 1842,224 L 1840,222 L 1838,222 L 1837,221 L 1835,221 L 1834,220 L 1833,220 L 1832,219 L 1831,220 L 1830,220 L 1829,219 L 1826,219 L 1825,218 Z" fill="white" fill-rule="evenodd" /><path d="M 373,218 L 372,219 L 369,219 L 368,220 L 367,220 L 366,219 L 365,220 L 363,220 L 362,221 L 361,221 L 360,222 L 357,222 L 356,223 L 355,223 L 354,224 L 352,224 L 350,226 L 349,226 L 348,227 L 347,227 L 347,228 L 346,229 L 345,228 L 345,229 L 343,231 L 342,231 L 341,232 L 340,232 L 340,233 L 338,235 L 338,236 L 334,240 L 334,241 L 331,244 L 332,245 L 330,247 L 330,248 L 329,249 L 329,251 L 328,252 L 328,253 L 327,254 L 327,258 L 326,259 L 326,261 L 325,262 L 325,271 L 324,272 L 324,287 L 323,288 L 323,317 L 324,318 L 323,319 L 323,409 L 324,410 L 324,417 L 325,418 L 325,422 L 326,423 L 325,424 L 325,425 L 326,426 L 326,428 L 327,429 L 327,431 L 328,432 L 327,433 L 328,434 L 328,435 L 329,436 L 329,438 L 331,440 L 331,441 L 332,442 L 332,444 L 333,444 L 334,445 L 333,446 L 334,446 L 336,448 L 336,449 L 341,454 L 342,454 L 345,457 L 346,457 L 347,458 L 348,458 L 349,459 L 351,459 L 353,461 L 356,461 L 357,462 L 358,462 L 359,463 L 361,463 L 362,464 L 363,463 L 364,463 L 365,464 L 368,464 L 369,465 L 391,465 L 392,464 L 396,464 L 397,463 L 398,464 L 399,464 L 400,463 L 402,463 L 403,462 L 404,462 L 405,461 L 408,461 L 410,459 L 412,459 L 414,457 L 416,457 L 418,455 L 419,455 L 420,454 L 420,453 L 421,452 L 423,452 L 423,451 L 424,450 L 425,450 L 425,449 L 427,447 L 427,446 L 429,444 L 429,443 L 431,441 L 431,439 L 433,437 L 433,436 L 434,435 L 433,434 L 434,433 L 434,432 L 435,431 L 435,430 L 436,429 L 435,428 L 436,427 L 436,425 L 437,424 L 437,421 L 438,420 L 438,419 L 437,418 L 438,417 L 438,412 L 439,411 L 439,403 L 440,402 L 440,394 L 439,393 L 439,391 L 440,390 L 440,372 L 441,371 L 441,345 L 442,344 L 442,335 L 441,334 L 442,333 L 442,302 L 441,301 L 442,300 L 442,298 L 441,297 L 441,278 L 440,277 L 440,268 L 439,267 L 440,266 L 440,263 L 439,262 L 439,259 L 438,258 L 438,256 L 437,255 L 438,254 L 438,253 L 437,252 L 437,251 L 436,250 L 436,249 L 435,248 L 436,247 L 434,245 L 434,244 L 433,243 L 433,242 L 432,241 L 432,240 L 431,239 L 431,238 L 430,238 L 429,237 L 429,235 L 428,235 L 422,229 L 422,228 L 421,228 L 419,226 L 417,226 L 416,225 L 416,224 L 414,224 L 413,223 L 412,223 L 411,222 L 408,222 L 407,221 L 406,221 L 405,220 L 403,220 L 402,219 L 401,220 L 400,220 L 399,219 L 396,219 L 395,218 Z" fill="white" fill-rule="evenodd" /><path d="M 377,244 L 378,243 L 388,243 L 389,244 L 394,244 L 396,246 L 398,246 L 404,252 L 404,253 L 406,255 L 406,256 L 407,257 L 407,259 L 408,260 L 408,261 L 409,262 L 409,268 L 410,269 L 410,278 L 411,279 L 411,334 L 412,335 L 412,337 L 411,338 L 412,339 L 412,357 L 411,358 L 412,359 L 412,363 L 411,364 L 411,385 L 410,386 L 410,398 L 409,399 L 409,406 L 410,407 L 409,408 L 409,414 L 408,415 L 408,418 L 407,419 L 407,423 L 406,424 L 406,425 L 404,427 L 405,428 L 403,430 L 402,430 L 403,431 L 401,433 L 400,433 L 400,434 L 397,437 L 395,437 L 393,439 L 392,439 L 391,440 L 390,439 L 389,439 L 388,440 L 375,440 L 374,439 L 373,439 L 372,440 L 371,439 L 370,439 L 368,437 L 366,437 L 364,435 L 363,435 L 362,434 L 363,433 L 362,432 L 361,432 L 360,431 L 360,430 L 358,428 L 358,426 L 356,424 L 356,420 L 355,419 L 355,416 L 354,415 L 354,407 L 353,406 L 353,402 L 354,401 L 354,374 L 353,373 L 353,303 L 354,302 L 354,285 L 353,284 L 353,282 L 354,281 L 354,273 L 355,272 L 355,268 L 356,267 L 356,263 L 357,262 L 357,261 L 358,260 L 358,257 L 360,255 L 360,254 L 361,253 L 362,253 L 362,251 L 363,250 L 364,250 L 364,249 L 365,248 L 366,249 L 366,248 L 368,246 L 370,246 L 372,244 Z" fill="white" fill-rule="evenodd" /><path d="M 229,218 L 228,219 L 224,219 L 223,220 L 222,220 L 221,219 L 220,219 L 218,221 L 216,221 L 215,222 L 212,222 L 210,224 L 208,224 L 206,226 L 205,226 L 204,227 L 203,227 L 202,228 L 201,228 L 201,229 L 199,231 L 198,231 L 197,232 L 196,232 L 196,233 L 195,234 L 195,235 L 193,237 L 192,237 L 191,238 L 192,239 L 190,241 L 190,242 L 187,245 L 188,246 L 186,248 L 186,249 L 185,250 L 186,251 L 185,252 L 185,253 L 184,254 L 184,256 L 183,257 L 183,262 L 182,263 L 182,266 L 181,267 L 181,281 L 180,282 L 180,308 L 179,309 L 179,375 L 180,376 L 180,403 L 181,404 L 181,414 L 182,415 L 181,416 L 181,419 L 182,420 L 182,423 L 183,424 L 183,429 L 184,430 L 184,431 L 185,432 L 185,435 L 188,438 L 187,439 L 189,441 L 189,442 L 190,443 L 190,444 L 191,444 L 192,445 L 191,446 L 192,446 L 200,454 L 200,455 L 201,454 L 204,457 L 205,457 L 206,458 L 207,458 L 208,459 L 209,459 L 210,460 L 211,460 L 213,462 L 214,461 L 215,462 L 217,462 L 218,463 L 219,463 L 220,464 L 221,464 L 222,463 L 223,464 L 227,464 L 228,465 L 248,465 L 249,464 L 253,464 L 254,463 L 255,464 L 256,464 L 257,463 L 259,463 L 260,462 L 261,462 L 262,461 L 263,462 L 264,461 L 265,461 L 266,460 L 267,460 L 268,459 L 269,459 L 270,458 L 271,458 L 272,457 L 273,457 L 277,453 L 279,453 L 279,452 L 281,450 L 281,449 L 282,448 L 283,448 L 283,447 L 285,445 L 285,443 L 287,441 L 287,439 L 289,437 L 289,434 L 290,433 L 290,431 L 291,430 L 291,429 L 292,428 L 292,427 L 291,426 L 291,425 L 292,424 L 292,421 L 293,420 L 293,412 L 294,411 L 294,394 L 293,393 L 293,377 L 266,377 L 266,407 L 265,408 L 265,418 L 264,419 L 264,421 L 262,423 L 263,424 L 262,425 L 262,426 L 261,427 L 261,428 L 260,429 L 260,430 L 259,431 L 258,431 L 258,432 L 257,433 L 256,433 L 256,434 L 253,437 L 251,437 L 249,439 L 244,439 L 243,440 L 234,440 L 233,439 L 228,439 L 227,438 L 226,438 L 225,437 L 224,437 L 222,435 L 221,435 L 216,430 L 216,429 L 214,427 L 214,425 L 212,423 L 212,422 L 211,421 L 212,420 L 212,419 L 211,418 L 211,413 L 210,412 L 210,397 L 209,396 L 209,391 L 210,390 L 210,370 L 209,369 L 209,309 L 210,308 L 210,293 L 209,292 L 209,289 L 210,288 L 210,278 L 211,277 L 211,271 L 212,270 L 212,268 L 211,267 L 212,266 L 212,263 L 213,262 L 213,261 L 214,260 L 214,257 L 216,255 L 216,254 L 217,253 L 218,253 L 217,252 L 219,250 L 220,250 L 220,249 L 221,248 L 222,249 L 222,248 L 224,246 L 226,246 L 227,245 L 228,245 L 229,244 L 233,244 L 234,243 L 245,243 L 246,244 L 250,244 L 251,245 L 252,245 L 253,246 L 254,246 L 256,248 L 256,249 L 257,249 L 261,253 L 260,254 L 262,256 L 262,257 L 263,258 L 262,259 L 263,260 L 263,262 L 264,263 L 264,268 L 265,269 L 265,297 L 292,297 L 292,265 L 291,264 L 291,262 L 292,261 L 292,259 L 291,258 L 291,255 L 290,254 L 290,252 L 289,251 L 289,248 L 288,247 L 288,246 L 287,245 L 287,243 L 285,241 L 285,240 L 284,239 L 284,238 L 283,237 L 283,236 L 282,235 L 281,235 L 276,230 L 276,229 L 275,228 L 274,228 L 273,227 L 272,227 L 271,226 L 270,226 L 268,224 L 266,224 L 264,222 L 261,222 L 260,221 L 259,221 L 258,220 L 254,220 L 253,219 L 250,219 L 249,218 Z" fill="white" fill-rule="evenodd" /><path d="M 48,45 L 47,46 L 46,46 L 45,47 L 44,47 L 44,48 L 42,50 L 41,50 L 42,51 L 40,53 L 40,54 L 39,55 L 39,628 L 40,629 L 40,630 L 42,632 L 41,633 L 42,633 L 43,634 L 43,635 L 44,636 L 45,635 L 46,636 L 46,637 L 47,637 L 48,638 L 874,638 L 875,637 L 876,637 L 877,636 L 878,636 L 883,631 L 883,627 L 884,626 L 884,532 L 859,532 L 858,531 L 858,611 L 857,612 L 66,612 L 65,611 L 65,72 L 66,71 L 857,71 L 858,72 L 858,152 L 884,152 L 884,57 L 883,56 L 883,53 L 882,52 L 882,51 L 878,47 L 877,47 L 875,45 L 874,46 L 873,45 L 50,45 L 49,46 Z" fill="white" fill-rule="evenodd" /></svg>