<?xml version="1.0" encoding="UTF-8"?>
<svg id="Layer_1" xmlns="http://www.w3.org/2000/svg" version="1.1" viewBox="0 0 306 107.9">
  <!-- Generator: Adobe Illustrator 29.0.0, SVG Export Plug-In . SVG Version: 2.1.0 Build 186)  -->
  <path d="M132.8,26.7h-3.8v-11.7H14.4v78.2h114.7v-11.6h3.8v13.8c0,.5-.8,1.5-1.4,1.6H12.3c-.7,0-1.3-.5-1.5-1.2V12.8c0-1.1,1-1.7,2-1.7h118c.9,0,2,.9,2,1.7v13.9Z"/>
  <polygon points="144.1 36.6 151 66.7 150.6 36.6 154.7 36.6 154.7 71.4 148.6 71.4 142 41.7 142.4 71.4 138.2 71.4 138.2 36.6 144.1 36.6"/>
  <path d="M199.4,36.6c2.9.1,5.9-.2,8.7,0,7.3.4,8.6,5.4,7.9,11.9s-1.1,6.5-4.5,7.2l6.2,15.7h-4.6l-5.8-15.2h-3.7v15.2h-4.2v-34.7ZM203.6,52.7h4.5c1.2,0,2.5-.7,3-1.7.9-1.7.9-6.4.3-8.2s-2.5-2.2-4.4-2.2-2.3,0-3.4,0v12.1Z"/>
  <path d="M73.6,36.6c2.8.1,5.8-.1,8.6,0,7.3.4,8.7,5.3,8,11.8s-1.1,6.6-4.5,7.3l6.2,15.7h-4.6l-5.8-15.2h-3.7v15.2h-4.2v-34.7ZM77.8,52.7h4.5c1.6,0,2.9-1,3.3-2.5s.6-5.8,0-7.4-2.5-2.2-4.4-2.2-2.3,0-3.4,0v12.1Z"/>
  <path d="M59.2,36.2c6.5-.6,9.2,2.3,9.6,8.6s.2,9.2,0,13.6,0,13-7.6,13.5-8.9-2.2-9.3-8.1,0-9.6,0-14.1-.4-12.8,7.4-13.4ZM59.6,39.8c-2,.2-3,1.9-3.2,3.8-.2,6.3-.5,12.9-.2,19.2s.7,5.5,4.2,5.5,3.8-3.7,4-6.6,0-5.7,0-8.5.2-6.5,0-9.5-1.8-4.3-4.8-4Z"/>
  <path d="M236.8,71.4l7.6-34.8h4.3s7.6,34.8,7.6,34.8h-4.4l-1.3-6.7h-8s-1.2,6.7-1.2,6.7h-4.5ZM243.2,60.9h6.6l-3.4-17.6-3.2,17.6Z"/>
  <polygon points="100.1 40.6 100.1 50.8 109.6 50.8 109.6 54.8 100.1 54.8 100.1 67.5 111.4 67.5 111.4 71.4 95.7 71.4 95.7 36.8 95.9 36.6 110.9 36.6 111 36.8 111 40.4 110.9 40.6 100.1 40.6"/>
  <polygon points="294.9 36.6 294.9 40.6 284.1 40.6 284.1 50.8 293.6 50.8 293.6 54.8 284.1 54.8 284.1 67.5 295.3 67.5 295.3 71.4 279.7 71.4 279.7 36.6 294.9 36.6"/>
  <path d="M194.8,36.6v3.9h-11c0,0,0,.1,0,.1v10s-.1,0,0,.1h9.7v3.9h-9.5v12.7h11.2v3.8h-15.6v-34.7h15.2Z"/>
  <path d="M47.4,59.1c0,4.5.8,10.6-4.6,12.3s-7.9.6-10-2.3-1.6-5.8-1.7-8.9-.1-8.2,0-12.2-.1-6.9,2.2-9.5,8.6-3.1,11.6-.7,2.5,6.5,2.4,9.9h-3.9c0-1.2,0-2.3,0-3.5-.2-2.9-1.1-4.6-4.3-4.3s-3.4,2.8-3.6,5.3c-.4,5.2-.3,11.3-.1,16.5s0,6.3,3.6,6.7c5.4.5,4.5-5.5,4.6-9.1h3.9Z"/>
  <path d="M275.2,47.6h-3.9c0-1,0-2,0-3,0-2-.3-4.4-2.7-4.7-5.8-.9-5.2,4.9-5.3,8.8s-.3,10.6,0,15.5,1.1,3.8,3.4,4.1,4.3-1.3,4.6-4v-5.1h4c0,4.5.7,10.6-4.6,12.3s-7.1.6-9.3-1.5-2.3-5.7-2.4-8.8c-.2-4.7-.2-9.4,0-14s0-6.9,2.8-9.2,6.7-2.3,9.5-1c4.5,2,3.9,6.6,3.9,10.7Z"/>
  <path d="M236.8,36.6v3.9h-11c0,0,0,.1,0,.1v9.9s-.1,0,0,.1h9.6v3.8h-9.6c0,0,0,.1,0,.1v16.6h-4.4v-34.6h.1c0-.1,15.2-.1,15.2-.1Z"/>
  <polygon points="175.9 36.6 175.9 40.6 169.2 40.6 169.2 71.4 165 71.4 165 40.6 158.5 40.6 158.4 40.4 158.4 36.8 158.5 36.6 175.9 36.6"/>
  <polygon points="133.2 71.4 128.9 71.4 128.9 36.6 133.1 36.6 133.2 71.4"/>
</svg>
