<svg xmlns="http://www.w3.org/2000/svg" width="24" height="24" fill="currentColor" class="bi bi-text-nowrap" viewBox="0 0 16 16">
  <path
     fill-rule="evenodd"
     d="M 2,3.5 C 2,3.2238576 2.2238576,3 2.5,3 h 11 c 0.666666,0 0.666666,1 0,1 H 2.5 C 2.2238576,4 2,3.7761424 2,3.5 m 0,4 C 2,7.2238576 2.2238576,7 2.5,7 5.1604641,7 12.072197,7.01487 14.221528,7.01487 l -0.647,-0.646 c -0.472,-0.472 0.236,-1.18 0.708,-0.708 l 1.5,1.5 c 0.195859,0.195364 0.195859,0.512636 0,0.708 l -1.5,1.5000003 c -0.472,0.472 -1.18,-0.2360003 -0.708,-0.7080003 l 0.647,-0.646 C 10.189217,8.01487 4.9244915,8 2.5,8 2.2238576,8 2,7.7761424 2,7.5 m 0,4 C 2,11.223858 2.2238576,11 2.5,11 h 11.141884 c 0.666666,0 0.666666,1 0,1 H 2.5 C 2.2238576,12 2,11.776142 2,11.5"/>
</svg>
